<svg width="137" height="100" viewBox="0 0 137 100" class="man-svg" xmlns="http://www.w3.org/2000/svg">
<path d="M84 78V87.2658L81.2996 89.5162L75.9773 90H70.309L68.4738 86.3296L66.9872 79.8876L66.9653 79.7929L66.9096 79.7133L63.4096 74.7133L63.0424 74.1886L62.6225 74.6722L46.1522 93.6379L38.8499 99.4797L17.0678 97.0045L4.6659 95.0202L0.847022 92.8986L13.3391 81.3674L13.3624 81.3459L13.3829 81.3216L23.8829 68.8216L23.9317 68.7634L23.9611 68.6934L30.4611 53.1934L30.4845 53.1377L30.4939 53.078L33.4918 34.0909L36.9734 17.678L43.8542 5.39079L51.6397 1.98464L61.5373 0.5H73.9189L81.249 2.94337L91.5214 11.7483L92.5 22.0238V31.9283L86.5201 52.3596L86.4394 52.6353L86.637 52.8439L95.637 62.3439L95.674 62.3829L95.7183 62.4131L106.718 69.9131L106.778 69.9539L106.847 69.976L120.846 74.4759L120.847 74.476L135.837 79.3115L132.161 88.5H125.576L117.675 86.0308L106.208 81.045L94.8041 75.5912L84.87 64.6637L84 63.7067V65V78Z" />
</svg>
